<svg xmlns="http://www.w3.org/2000/svg" width="117.242" height="124.62" viewBox="0 0 117.242 124.62"><defs><style>.a{fill:#ffcb05;}.b{fill:none;}.c{fill:#b299c9;}.d,.e{stroke:none;}.e{fill:#532f87;}</style></defs><g transform="translate(-346 -1454.036)"><path class="a" d="M5052.117,1365.507c35.7-12.62,82.244,46.35,55.379,80.364s-91.758,37.7-98.784,0S5016.42,1378.126,5052.117,1365.507Z" transform="translate(-4652.249 105.874)"/><g transform="translate(-618.462 -353.426)"><g transform="translate(974.9 1817.9)"><g class="b" transform="translate(-5.3 -5.002)"><path class="d" d="M94.373,24.653A17.939,17.939,0,0,0,89,10.427,17.938,17.938,0,0,0,74.774,5.054c-5.145.4-10.139,2.879-14.442,7.183L43.079,29.491c-4.3,4.3-6.787,9.3-7.183,14.442a17.938,17.938,0,0,0,5.373,14.226,19.208,19.208,0,0,0,3.472,2.759l1.593-1.593a9.3,9.3,0,0,0,2.954-5.247,3.247,3.247,0,0,0-.06-.942,10.344,10.344,0,0,1-1.613-1.323,8.977,8.977,0,0,1-2.771-7.191,14.493,14.493,0,0,1,4.581-8.784L66.679,18.584A14.492,14.492,0,0,1,75.463,14a8.977,8.977,0,0,1,7.191,2.771,8.977,8.977,0,0,1,2.771,7.191,14.493,14.493,0,0,1-4.581,8.784L68,45.592a23.328,23.328,0,0,1,1.423,10.034c-.035.453-.083.9-.143,1.355.22-.207.439-.416.656-.632L87.19,39.1C91.494,34.791,93.978,29.8,94.373,24.653Z"/><path class="e" d="M 76.14731597900391 5.001583099365234 C 75.69089508056641 5.001575469970703 75.23317718505859 5.018989562988281 74.77445983886719 5.054168701171875 C 69.6297607421875 5.449832916259766 64.63579559326172 7.933670043945312 60.33218383789062 12.23728179931641 L 43.07865142822266 29.49080657958984 C 38.77510833740234 33.79441833496094 36.29119110107422 38.78836822509766 35.89554595947266 43.93276977539062 C 35.48871612548828 49.23681640625 37.45699310302734 54.44784545898438 41.26878356933594 58.15845489501953 C 42.3157958984375 59.20920562744141 43.48101806640625 60.1351432800293 44.74111938476562 60.91774368286133 L 46.33428955078125 59.32454299926758 C 47.87370300292969 57.95140838623047 48.91294097900391 56.1054573059082 49.28852081298828 54.07709503173828 C 49.31441497802734 53.76195526123047 49.29415130615234 53.44471740722656 49.22837066650391 53.13542938232422 C 48.64743041992188 52.74977111816406 48.10697937011719 52.30634307861328 47.61524200439453 51.81194305419922 C 45.65753936767578 49.95351791381836 44.63995361328125 47.31283187866211 44.84434509277344 44.62125396728516 C 45.29214477539062 41.24611663818359 46.91387939453125 38.13638305664062 49.42517852783203 35.83737945556641 L 66.67875671386719 18.58379364013672 C 68.97776794433594 16.07245635986328 72.08759307861328 14.45074462890625 75.46278381347656 14.00310516357422 C 78.154296875 13.79868698120117 80.79494476318359 14.81619262695312 82.6533203125 16.77388000488281 C 84.61103057861328 18.63230514526367 85.62860107421875 21.27297973632812 85.42422485351562 23.96455764770508 C 84.97642517089844 27.33971786499023 83.35469055175781 30.44949340820312 80.84340667724609 32.74854278564453 L 68.000244140625 45.59178161621094 C 69.20423889160156 48.79185485839844 69.69011688232422 52.21748352050781 69.42344665527344 55.62616729736328 C 69.38856506347656 56.07924270629883 69.340087890625 56.53076934814453 69.28056335449219 56.98083114624023 C 69.50041198730469 56.77356719970703 69.71992492675781 56.56510543823242 69.93644714355469 56.34857940673828 L 87.18995666503906 39.09506988525391 C 91.49357604980469 34.79144287109375 93.97750854492188 29.79751968383789 94.37313842773438 24.65304565429688 C 94.77986907958984 19.34901809692383 92.81158447265625 14.13803100585938 88.99983215332031 10.42740631103516 C 85.61020660400391 6.945358276367188 80.96821594238281 5.001667022705078 76.14731597900391 5.001583099365234 M 76.14731597900391 0.00157928466796875 L 76.14739990234375 0.00157928466796875 C 79.22146606445312 0.0016326904296875 82.21717834472656 0.6070175170898438 85.05135345458984 1.800907135009766 C 87.87507629394531 2.990379333496094 90.39291381835938 4.703098297119141 92.53575897216797 6.891773223876953 C 94.90451049804688 9.211589813232422 96.77443695068359 12.07461929321289 97.94586944580078 15.17593002319336 C 99.12520599365234 18.2982063293457 99.61369323730469 21.7075309753418 99.35850524902344 25.03533172607422 C 98.87000274658203 31.38734436035156 95.88478088378906 37.47130584716797 90.72549438476562 42.63060760498047 L 73.47198486328125 59.88411712646484 C 73.19973754882812 60.15635681152344 72.93612670898438 60.40619277954102 72.71041870117188 60.61898040771484 L 62.48027801513672 70.26339721679688 L 64.32373046875 56.32524490356445 C 64.37311553955078 55.95188140869141 64.41162109375 55.58757019042969 64.43819427490234 55.242431640625 L 64.43868255615234 55.2361946105957 C 64.64678955078125 52.57603073120117 64.2601318359375 49.84989166259766 63.32050323486328 47.35249328613281 L 62.18541717529297 44.33555603027344 L 77.38581848144531 29.13505554199219 L 77.46714782714844 29.06060791015625 C 79.07145690917969 27.59187316894531 80.12548828125 25.60781478881836 80.44621276855469 23.45916366577148 C 80.49736022949219 22.30664825439453 80.05128479003906 21.19789505004883 79.21092987060547 20.40016937255859 L 79.11656188964844 20.31059265136719 L 79.02699279785156 20.21623229980469 C 78.27957153320312 19.42885589599609 77.22853088378906 18.97727966308594 76.14339447021484 18.97727966308594 C 76.08514404296875 18.97727966308594 76.02647399902344 18.97858047485352 75.96791076660156 18.98116302490234 C 73.81934356689453 19.30176162719727 71.83540344238281 20.3557014465332 70.36676025390625 21.95998001098633 L 70.29228210449219 22.04133224487305 L 52.88272857666016 39.45089340209961 L 52.8013916015625 39.52536773681641 C 51.19709014892578 40.99404144287109 50.14308166503906 42.97805023193359 49.82236480712891 45.12665557861328 C 49.77120208740234 46.27915954589844 50.21729278564453 47.38793182373047 51.05763244628906 48.18565368652344 L 51.16030883789062 48.28596878051758 C 51.41387939453125 48.54090881347656 51.69429016113281 48.77098083496094 51.99378204345703 48.96979522705078 L 53.69429016113281 50.09870529174805 L 54.11895751953125 52.09516906738281 C 54.28614044189453 52.88115692138672 54.33753967285156 53.68576812744141 54.27172088623047 54.48664474487305 L 54.25099182128906 54.73873138427734 L 54.20494079589844 54.98743057250977 C 53.64007568359375 58.03815841674805 52.07085418701172 60.85964584350586 49.77999114990234 62.94990921020508 L 45.4722900390625 67.25768280029297 L 42.10316467285156 65.16522979736328 C 40.52787780761719 64.18688201904297 39.0648193359375 63.02614593505859 37.75386810302734 61.71464920043945 C 35.37515258789062 59.39119720458984 33.49758911132812 56.52037811279297 32.32271575927734 53.40989303588867 C 31.14337921142578 50.28758239746094 30.65494537353516 46.87823104858398 30.91017913818359 43.55039215087891 C 31.39870452880859 37.19850540161133 34.38388061523438 31.11458206176758 39.5430908203125 25.95529556274414 L 56.79664611816406 8.701744079589844 C 61.95586395263672 3.542530059814453 68.03990173339844 0.5573348999023438 74.39105224609375 0.0688934326171875 C 74.97389221191406 0.02419281005859375 75.56440734863281 0.00157928466796875 76.14731597900391 0.00157928466796875 Z"/></g><g class="b" transform="translate(-5.002 -5.326)"><path class="d" d="M63.532,55.52a17.938,17.938,0,0,0-5.373-14.226,19.2,19.2,0,0,0-3.472-2.759l-1.593,1.593a9.3,9.3,0,0,0-2.954,5.247,3.29,3.29,0,0,0,.043.86l.015.08a10.342,10.342,0,0,1,1.615,1.325,8.978,8.978,0,0,1,2.771,7.191A14.494,14.494,0,0,1,50,63.616L32.749,80.869a14.493,14.493,0,0,1-8.784,4.581,8.977,8.977,0,0,1-7.19-2.771A8.978,8.978,0,0,1,14,75.489,14.494,14.494,0,0,1,18.584,66.7L31.425,53.864A23.385,23.385,0,0,1,30,43.827c.035-.453.083-.9.143-1.354-.22.207-.439.416-.656.632L12.237,60.358c-4.3,4.3-6.787,9.3-7.183,14.442a17.938,17.938,0,0,0,5.373,14.226A17.938,17.938,0,0,0,24.653,94.4C29.8,94,34.792,91.52,39.1,87.216L56.349,69.962C60.652,65.659,63.136,60.665,63.532,55.52Z"/><path class="e" d="M 54.68619155883789 38.53551483154297 L 53.09306716918945 40.12863922119141 C 51.55365753173828 41.50179290771484 50.514404296875 43.34774017333984 50.1388053894043 45.37610626220703 C 50.11544036865234 45.66355133056641 50.12998199462891 45.95281982421875 50.18202972412109 46.23646545410156 L 50.19676971435547 46.31649017333984 C 50.77854156494141 46.70243072509766 51.31974029541016 47.14627838134766 51.81209182739258 47.64125823974609 C 53.76977920532227 49.49969482421875 54.787353515625 52.14036560058594 54.58298110961914 54.83193969726562 C 54.13519287109375 58.20706939697266 52.51348114013672 61.31681823730469 50.00222778320312 63.61586761474609 L 32.7486686706543 80.86945343017578 C 30.44954299926758 83.38078308105469 27.33969116210938 85.00248718261719 23.9644660949707 85.45022583007812 C 21.27302932739258 85.65457153320312 18.63235855102539 84.63697814941406 16.77397918701172 82.6793212890625 C 14.81628036499023 80.82087707519531 13.7987060546875 78.18020629882812 14.00307846069336 75.48863220214844 C 14.45087814331055 72.11351013183594 16.07257843017578 69.00376892089844 18.58381652832031 66.70471954345703 L 31.42489242553711 53.86365509033203 C 30.22304153442383 50.6622314453125 29.73794174194336 47.23615264892578 30.00379180908203 43.826904296875 C 30.03861618041992 43.37393951416016 30.08715438842773 42.92253875732422 30.14662933349609 42.47254180908203 C 29.92678070068359 42.67974090576172 29.70737838745117 42.88822937011719 29.49092864990234 43.1046142578125 L 12.23735427856445 60.35819244384766 C 7.933792114257812 64.66175842285156 5.449893951416016 69.65575408935547 5.054290771484375 74.80015563964844 C 4.647403717041016 80.10418701171875 6.615680694580078 85.31524658203125 10.4274787902832 89.02584075927734 C 14.13801956176758 92.83760833740234 19.34894180297852 94.80586242675781 24.65293121337891 94.39901733398438 C 29.7976188659668 94.00343322753906 34.79158020019531 91.51951599121094 39.09513092041016 87.21597290039062 L 56.34870529174805 69.96238708496094 C 60.65226745605469 65.65882873535156 63.13615417480469 60.66483306884766 63.53176879882812 55.52041625976562 C 63.93865585327148 50.21637725830078 61.97037887573242 45.00534057617188 58.15859222412109 41.29473876953125 C 57.11157989501953 40.24396514892578 55.94634246826172 39.31805419921875 54.68619155883789 38.53551483154297 M 36.94500732421875 29.19469451904297 L 35.10353088378906 43.12767791748047 C 35.05400466918945 43.50236511230469 35.0154914855957 43.8665771484375 34.98907852172852 44.21018981933594 L 34.98865509033203 44.21561431884766 C 34.78106689453125 46.87784576416016 35.16740417480469 49.60640716552734 36.10590362548828 52.10635375976562 L 37.23790740966797 55.12171936035156 L 22.04140472412109 70.31819152832031 L 21.96011734008789 70.39261627197266 C 20.35582733154297 71.86135101318359 19.30181884765625 73.84542846679688 18.98109817504883 75.99404907226562 C 18.92993545532227 77.14656829833984 19.37604141235352 78.25530242919922 20.21638107299805 79.05303955078125 L 20.31071853637695 79.14259338378906 L 20.4002685546875 79.23693084716797 C 21.14779281616211 80.02439117431641 22.19896697998047 80.47601318359375 23.28425598144531 80.47601318359375 C 23.34243011474609 80.47601318359375 23.40103530883789 80.47471618652344 23.45952606201172 80.47214508056641 C 25.60807037353516 80.15139007568359 27.59207534790039 79.09739685058594 29.06075668334961 77.4931640625 L 29.13519287109375 77.411865234375 L 46.54463958740234 60.00239562988281 L 46.62594223022461 59.92795562744141 C 48.23023223876953 58.45922088623047 49.28424072265625 56.47517395019531 49.60495758056641 54.32655334472656 C 49.65612030029297 53.17403411865234 49.21002197265625 52.06525421142578 48.36968231201172 51.26751708984375 L 48.26716613769531 51.16738128662109 C 48.01338195800781 50.9122314453125 47.73264312744141 50.68199157714844 47.43275451660156 50.48305511474609 L 45.66390228271484 49.30963897705078 L 45.26471710205078 47.14204406738281 C 45.13302993774414 46.42443084716797 45.09638977050781 45.69505310058594 45.15524291992188 44.9710693359375 L 45.17591857910156 44.71668243408203 L 45.22238159179688 44.46572113037109 C 45.78729629516602 41.41501617431641 47.35637664794922 38.59368133544922 49.647216796875 36.50341796875 L 53.95489120483398 32.19575500488281 L 57.32391738891602 34.28787994384766 C 58.89955139160156 35.26632690429688 60.36286926269531 36.42726898193359 61.67403030395508 37.73906707763672 C 64.05254364013672 40.06243133544922 65.92985534667969 42.93301391601562 67.10464477539062 46.04331970214844 C 68.28398132324219 49.16564178466797 68.77240753173828 52.57501983642578 68.51712036132812 55.90285491943359 C 68.02865600585938 62.25474548339844 65.04347991943359 68.33869171142578 59.88424301147461 73.4979248046875 L 42.63066864013672 90.75151062011719 C 37.47138977050781 95.91078186035156 31.3873405456543 98.89595031738281 25.0362548828125 99.38430786132812 C 24.45364379882812 99.42899322509766 23.86299133300781 99.45161437988281 23.27980422973633 99.45161437988281 C 20.20571899414062 99.45161437988281 17.20999145507812 98.84625244140625 14.37583160400391 97.65236663818359 C 11.55220031738281 96.462890625 9.034408569335938 94.75019836425781 6.891555786132812 92.56147766113281 C 4.522758483886719 90.24165344238281 2.652824401855469 87.37863159179688 1.481414794921875 84.27726745605469 C 0.3020782470703125 81.15493774414062 -0.1863479614257812 77.74555969238281 0.068939208984375 74.41771697998047 C 0.5573959350585938 68.06586456298828 3.542564392089844 61.98190307617188 8.701816558837891 56.82265472412109 L 25.95539093017578 39.56907653808594 C 26.21820449829102 39.30635833740234 26.47686767578125 39.06049346923828 26.71733093261719 38.83387756347656 L 36.94500732421875 29.19469451904297 Z"/></g></g><g transform="translate(964.461 1807.462)"><path class="c" d="M48,86.151v8.913a2.445,2.445,0,0,0,4.89,0V86.151a2.445,2.445,0,1,0-4.89,0Z" transform="translate(4.556 12.49)"/><path class="c" d="M48,7.445v8.913a2.445,2.445,0,0,0,4.89,0V7.445a2.445,2.445,0,1,0-4.89,0Z" transform="translate(4.556 -5)"/><path class="c" d="M67.077,79.264a2.445,2.445,0,0,0-.893,3.341l4.459,7.712a2.445,2.445,0,0,0,4.233-2.448l-4.459-7.712a2.445,2.445,0,0,0-3.34-.893Z" transform="translate(8.524 11.43)"/><path class="c" d="M27.718,11.082a2.445,2.445,0,0,0-.9,3.34l4.453,7.721A2.445,2.445,0,0,0,35.509,19.7l-4.453-7.722A2.445,2.445,0,0,0,27.718,11.082Z" transform="translate(-0.223 -3.721)"/><path class="c" d="M80.151,70.423l7.708,4.45A2.445,2.445,0,1,0,90.3,70.638L82.6,66.188a2.445,2.445,0,0,0-2.445,4.235Z" transform="translate(11.429 8.524)"/><path class="c" d="M23.035,34.616a2.445,2.445,0,0,0-.895-3.34l-7.71-4.451a2.445,2.445,0,1,0-2.445,4.235l7.71,4.451A2.445,2.445,0,0,0,23.035,34.616Z" transform="translate(-3.719 -0.223)"/><path class="c" d="M97.509,50.45A2.445,2.445,0,0,0,95.064,48H86.152a2.445,2.445,0,1,0,0,4.891h8.912a2.445,2.445,0,0,0,2.445-2.445Z" transform="translate(12.491 4.557)"/><path class="c" d="M7.445,52.885h8.912a2.445,2.445,0,1,0,0-4.891H7.445a2.445,2.445,0,0,0,0,4.891Z" transform="translate(-4.999 4.554)"/></g></g></g></svg>