<svg xmlns="http://www.w3.org/2000/svg" width="148.662" height="94.88" viewBox="0 0 148.662 94.88"><defs><style>.a{fill:#ffcb05;}.b{fill:#b299c9;}.c{fill:none;stroke-linecap:round;stroke-linejoin:round;}.d,.e{stroke:none;}.e{fill:#532f87;}</style></defs><g transform="translate(-1385 -1453.608)"><path class="a" d="M5530.994,1415.954c.571-37.679,48.258-49.91,76.648-31.428s33.78,63,0,71.868S5530.423,1453.634,5530.994,1415.954Z" transform="translate(-4097.339 77.572)"/><g transform="translate(1393.6 1459.585)"><g transform="translate(-8.6 17.7)"><path class="b" d="M23.544,24.3H5.5a4.1,4.1,0,1,0,0,8.2H23.544a4.113,4.113,0,0,0,4.1-4.1h0A4.112,4.112,0,0,0,23.544,24.3Z" transform="translate(-1.4 -17.534)"/><path class="b" d="M23.544,40.1H5.5a4.1,4.1,0,0,0,0,8.2H23.544a4.113,4.113,0,0,0,4.1-4.1h0A4.181,4.181,0,0,0,23.544,40.1Z" transform="translate(-1.4 -17.136)"/><path class="b" d="M23.544,56H5.5a4.113,4.113,0,0,0-4.1,4.1h0a4.113,4.113,0,0,0,4.1,4.1H23.544a4.113,4.113,0,0,0,4.1-4.1h0A4.181,4.181,0,0,0,23.544,56Z" transform="translate(-1.4 -16.736)"/><g class="c" transform="translate(9.679 -17.7)"><path class="d" d="M91.3,17.7H43.219A8.925,8.925,0,0,0,34.3,26.619V62.91a8.925,8.925,0,0,0,8.919,8.919H52.24V82.08a1.764,1.764,0,0,0,3.075,1.23L66.8,71.931a.1.1,0,0,1,.1-.1H91.4a8.925,8.925,0,0,0,8.919-8.919V26.619A9.081,9.081,0,0,0,91.3,17.7Z"/><path class="e" d="M 43.21892547607422 17.70000457763672 C 38.29813385009766 17.70000457763672 34.30000305175781 21.69813537597656 34.30000305175781 26.61891937255859 L 34.30000305175781 62.90969467163086 C 34.30000305175781 67.83048248291016 38.29813385009766 71.82861328125 43.21892547607422 71.82861328125 L 52.24034881591797 71.82861328125 L 52.24034881591797 82.08024597167969 C 52.24034881591797 83.72049713134766 54.18819427490234 84.54064178466797 55.31584167480469 83.31044006347656 L 66.79766845703125 71.93112182617188 C 66.79766845703125 71.93112182617188 66.79766845703125 71.82861328125 66.90019226074219 71.82861328125 L 91.40158843994141 71.82861328125 C 96.32237243652344 71.82861328125 100.3204956054688 67.83047485351562 100.3204956054688 62.90969467163086 L 100.3204956054688 26.61891937255859 C 100.2179870605469 21.69813537597656 96.2198486328125 17.70000457763672 91.299072265625 17.70000457763672 L 43.21892547607422 17.70000457763672 M 43.21892547607422 12.70000457763672 L 91.299072265625 12.70000457763672 C 95.001953125 12.70000457763672 98.49620056152344 14.14353942871094 101.1381683349609 16.76468658447266 C 103.7576446533203 19.36353302001953 105.2425765991211 22.82618713378906 105.3194122314453 26.51479339599609 C 105.3201370239258 26.54949951171875 105.3204956054688 26.58420562744141 105.3204956054688 26.61891937255859 L 105.3204956054688 62.90969467163086 C 105.3204956054688 70.58461761474609 99.07649230957031 76.82861328125 91.40158843994141 76.82861328125 L 68.95903778076172 76.82861328125 L 58.89654541015625 86.80127716064453 C 57.59909057617188 88.15768432617188 55.87236785888672 88.90276336669922 54.01731109619141 88.90276336669922 C 52.25624084472656 88.90276336669922 50.58597564697266 88.22649383544922 49.31416320800781 86.99855041503906 C 47.97684478759766 85.70735168457031 47.24034881591797 83.96065521240234 47.24034881591797 82.08024597167969 L 47.24034881591797 76.82861328125 L 43.21892547607422 76.82861328125 C 35.54400634765625 76.82861328125 29.30000305175781 70.58461761474609 29.30000305175781 62.90969467163086 L 29.30000305175781 26.61891937255859 C 29.30000305175781 18.94400024414062 35.54400634765625 12.70000457763672 43.21892547607422 12.70000457763672 Z"/></g></g></g></g></svg>