<svg xmlns="http://www.w3.org/2000/svg" width="118.035" height="110" viewBox="0 0 118.035 110"><defs><style>.a{fill:#ffcb05;}.b{fill:#532f87;}.c{fill:#b299c9;}</style></defs><g transform="translate(-821.997 -1454.574)"><path class="a" d="M5530.995,1415.749c.652-37.485,55.005-49.653,87.366-31.266s38.5,62.678,0,71.5S5530.344,1453.234,5530.995,1415.749Z" transform="translate(-4708.992 88)"/><g transform="translate(829 1453.541)"><path class="b" d="M40.411,50.554a2.807,2.807,0,1,0,0-5.614A18.718,18.718,0,1,0,59.1,63.691a2.807,2.807,0,0,0-5.614,0A13.137,13.137,0,1,1,40.344,50.554Z" transform="translate(2.538 5.393)"/><path class="b" d="M77.869,70.02l-5.861,1.033a2.8,2.8,0,0,0-2.246,2.021,27.643,27.643,0,0,1-2.728,6.647,2.8,2.8,0,0,0,.135,3l3.447,4.862a1.718,1.718,0,0,1-.191,2.246L66.91,93.341a1.718,1.718,0,0,1-2.246.191l-4.873-3.368a2.8,2.8,0,0,0-3-.135,27.622,27.622,0,0,1-6.636,2.751,2.8,2.8,0,0,0-2.021,2.246L47.1,100.887a1.718,1.718,0,0,1-1.673,1.291H40.467a1.718,1.718,0,0,1-1.7-1.415L37.739,94.9a2.8,2.8,0,0,0-2.021-2.246,27.677,27.677,0,0,1-6.647-2.728,2.8,2.8,0,0,0-3,.135L21.2,93.431a1.718,1.718,0,0,1-2.246-.191L15.5,89.827a1.718,1.718,0,0,1-.191-2.246l3.368-4.873a2.8,2.8,0,0,0,.191-2.987A27.576,27.576,0,0,1,16.113,73.1a2.8,2.8,0,0,0-2.246-2.021L8.006,70.043a1.718,1.718,0,0,1-1.392-1.718V63.362a1.718,1.718,0,0,1,1.415-1.7l5.861-1.033a2.8,2.8,0,0,0,2.246-2.021,27.577,27.577,0,0,1,2.751-6.636,2.8,2.8,0,0,0-.135-3l-3.368-4.873a1.718,1.718,0,0,1,.191-2.246l3.391-3.47a1.718,1.718,0,0,1,2.246-.213l4.873,3.368a2.8,2.8,0,0,0,3,.135,27.622,27.622,0,0,1,6.636-2.751,2.8,2.8,0,0,0,2.021-2.246l1.033-5.861a2.8,2.8,0,1,0-5.5-.966l-.73,4.166a33.19,33.19,0,0,0-4.66,1.931l-3.458-2.425a7.287,7.287,0,0,0-9.353.82l-3.514,3.514a7.287,7.287,0,0,0-.808,9.353l2.425,3.458a33.18,33.18,0,0,0-1.931,4.66l-4.177.808A7.287,7.287,0,0,0,1,63.362v4.974a7.287,7.287,0,0,0,6.041,7.186l4.166.73a33.191,33.191,0,0,0,1.931,4.66l-2.4,3.458a7.287,7.287,0,0,0,.82,9.353l3.514,3.514a7.287,7.287,0,0,0,9.353.82l3.458-2.425a33.282,33.282,0,0,0,4.66,1.931l.73,4.166a7.287,7.287,0,0,0,7.2,6.063h4.974a7.287,7.287,0,0,0,7.209-6.063l.73-4.166a33.2,33.2,0,0,0,4.66-1.931L61.5,98.057a7.287,7.287,0,0,0,9.353-.82l3.514-3.514a7.287,7.287,0,0,0,.82-9.353L72.76,80.912a33.247,33.247,0,0,0,1.931-4.66l4.166-.73a2.8,2.8,0,0,0-.966-5.5Z" transform="translate(0 3.241)"/><path class="c" d="M102.185,32.57l-3.144-1.46a26.049,26.049,0,0,0-1.864-6.984l1.987-2.841a7.051,7.051,0,0,0-.786-9.039L95.01,8.878a7.051,7.051,0,0,0-9.039-.786l-2.807,2.032A26.061,26.061,0,0,0,76.18,8.261L74.72,5.117a7.051,7.051,0,0,0-8.23-3.84L62,2.489a7.051,7.051,0,0,0-5.244,7.489l.3,3.368a26.577,26.577,0,0,0-5.109,5.109l-3.447-.3a7.051,7.051,0,0,0-7.433,5.2l-1.213,4.491a7.051,7.051,0,0,0,3.84,8.23l3.144,1.46A26.061,26.061,0,0,0,48.7,44.517l-1.987,2.841A7.051,7.051,0,0,0,47.5,56.4l3.368,3.368a7.051,7.051,0,0,0,9.039.786l2.841-1.987a26.05,26.05,0,0,0,6.917,1.942l1.46,3.144a7.04,7.04,0,0,0,8.219,3.806l4.491-1.213a7.051,7.051,0,0,0,5.21-7.433l-.3-3.447a26.612,26.612,0,0,0,2.728-2.38h0a26.59,26.59,0,0,0,2.47-2.751l3.447.3a7.051,7.051,0,0,0,7.433-5.2l1.213-4.491a7.051,7.051,0,0,0-3.851-8.275Zm-1.561,6.737L99.411,43.8a1.471,1.471,0,0,1-1.549,1.123l-5.041-.393a2.8,2.8,0,0,0-2.571,1.246,20.941,20.941,0,0,1-5.895,5.895,2.8,2.8,0,0,0-1.246,2.571l.449,5.041a1.471,1.471,0,0,1-1.123,1.55l-4.491,1.213a1.471,1.471,0,0,1-1.718-.8l-2.145-4.6a2.8,2.8,0,0,0-2.369-1.606,20.582,20.582,0,0,1-8.084-2.145,2.8,2.8,0,0,0-2.852.213l-4.121,2.908a1.471,1.471,0,0,1-1.886-.168L51.4,52.478a1.471,1.471,0,0,1-.124-1.841l2.908-4.154a2.8,2.8,0,0,0,.213-2.818,20.581,20.581,0,0,1-2.156-8.039,2.8,2.8,0,0,0-1.606-2.369l-4.6-2.145a1.471,1.471,0,0,1-.8-1.718L46.448,24.9A1.471,1.471,0,0,1,48,23.778l5.041.449a2.785,2.785,0,0,0,2.571-1.246A20.952,20.952,0,0,1,61.5,17.086a2.8,2.8,0,0,0,1.258-2.616l-.449-5.041a1.471,1.471,0,0,1,1.123-1.549l4.491-1.213a1.471,1.471,0,0,1,1.718.8l2.145,4.6a2.8,2.8,0,0,0,2.369,1.606A20.581,20.581,0,0,1,82.2,15.828a2.8,2.8,0,0,0,2.863-.236l4.154-2.908a1.471,1.471,0,0,1,1.886.168l3.368,3.368a1.471,1.471,0,0,1,.168,1.886L91.7,22.229a2.8,2.8,0,0,0-.213,2.852A20.581,20.581,0,0,1,93.64,33.12a2.8,2.8,0,0,0,1.606,2.369l4.6,2.145a1.471,1.471,0,0,1,.831,1.718Z" transform="translate(4.743 0)"/><path class="b" d="M77.169,23.8a46.979,46.979,0,0,0-9.5,8.758,17.46,17.46,0,0,0-4-3.166,2.8,2.8,0,1,0-2.8,4.817,11.88,11.88,0,0,1,4.357,4.357,2.8,2.8,0,0,0,2.246,1.392H67.6a2.8,2.8,0,0,0,2.246-1.2A41.432,41.432,0,0,1,80.3,28.377,2.8,2.8,0,1,0,77.113,23.8Z" transform="translate(7.156 2.722)"/></g></g></svg>