<svg xmlns="http://www.w3.org/2000/svg" width="88" height="88.05" viewBox="0 0 88 88.05"><defs><style>.a{fill:#fff;}.b{fill:#532f87;}.c{fill:#ffca05;}</style></defs><g transform="translate(-1086 -2680.975)"><path class="a" d="M52.377,4.515C76.678,4.515,88,20.147,88,45S63.666,92.564,39.366,92.564,0,69.853,0,45,28.077,4.515,52.377,4.515Z" transform="translate(1086 2676.46)"/><g transform="translate(-571 961.631)"><g transform="translate(1677 1765.728)"><path class="b" d="M-151.1-146.14a21.186,21.186,0,0,0,19.01-21.118,1.689,1.689,0,0,0-1.573-1.508,1.641,1.641,0,0,0-1.225.406,1.711,1.711,0,0,0-.583,1.205,17.6,17.6,0,0,1-5.224,12.534,17.721,17.721,0,0,1-12.6,5.22,17.854,17.854,0,0,1-17.828-17.857,1.689,1.689,0,0,0-1.573-1.509,1.653,1.653,0,0,0-1.225.41,1.706,1.706,0,0,0-.582,1.2,21.146,21.146,0,0,0,19,21.015l.509.054v6.573h-9.635a1.692,1.692,0,0,0-1.509,1.579,1.7,1.7,0,0,0,1.612,1.8l22.559,0a1.684,1.684,0,0,0,1.506-1.572,1.7,1.7,0,0,0-1.608-1.808l-9.546,0v-6.573Z" transform="translate(174.503 168.772)"/></g><g transform="translate(1683.311 1733.369)"><path class="c" d="M-96.168,0a14.917,14.917,0,0,0-14.893,14.9V34.2A14.936,14.936,0,0,0-96.143,49.1,14.925,14.925,0,0,0-81.27,34.155V14.9A14.914,14.914,0,0,0-96.168,0m11.614,14.948V34.2A11.623,11.623,0,0,1-96.171,45.81a11.527,11.527,0,0,1-8.2-3.4,11.531,11.531,0,0,1-3.4-8.209V14.948A11.625,11.625,0,0,1-96.165,3.333,11.632,11.632,0,0,1-84.553,14.948" transform="translate(111.061)"/></g></g></g></svg>