<svg xmlns="http://www.w3.org/2000/svg" width="42.687" height="80" viewBox="0 0 42.687 80"><defs><style>.a{fill:#532f87;}.b{fill:#ffca05;}</style></defs><g transform="translate(-142 437.792)"><g transform="translate(142 -431.72)"><path class="a" d="M-230.409-142.034l-4.811-23.214a3.366,3.366,0,0,0-1.716-2.485,4.361,4.361,0,0,0-3.811.294c-2.235,1.09-3.512,3.943-3.176,7.1l1.1,10.354-21.371-5.826a3.759,3.759,0,0,0-3.947.842,4.187,4.187,0,0,0-2.783,1.04,4.872,4.872,0,0,0-1.468,3.918c.757,10.463,1.338,20.652.143,30.272-.717,5.733-.561,9.975,2.352,14.636l0,9.535a1.4,1.4,0,0,0,1.448,1.448A1.4,1.4,0,0,0-267-95.568l-.006-6.148a10.3,10.3,0,0,0,10.073,1.8,1.392,1.392,0,0,0,.958-1.054,1.539,1.539,0,0,0-.491-1.434,1.4,1.4,0,0,0-1.406-.249c-3.736,1.273-6.983.013-9.379-3.643-2.708-4.144-2.847-7.383-2.134-13.076a100.763,100.763,0,0,0,.691-12.247,3.407,3.407,0,0,0,1.013,1.175,4.821,4.821,0,0,0,2.274.88l-1.644,2.1a1.461,1.461,0,0,0-.029,1.747,4.847,4.847,0,0,0,2.748,1.9,5.745,5.745,0,0,0,3.271-.262,15.637,15.637,0,0,0,5.583-3.822,6.848,6.848,0,0,0,3.1,1.067,8.055,8.055,0,0,0-.035.892,5.038,5.038,0,0,0,.234,1.5,5.632,5.632,0,0,0-2.681,3.34,16.888,16.888,0,0,0-6.283,3.317,11.046,11.046,0,0,0-3.136,6.33,1.408,1.408,0,0,0,1.144,1.708,1.491,1.491,0,0,0,1.04-.167,1.427,1.427,0,0,0,.663-.978c.47-2.372,1.1-3.714,2.254-4.783a13.451,13.451,0,0,1,4.4-2.378,5.89,5.89,0,0,0,1.776,2.39,1.387,1.387,0,0,0,1.44.348,1.565,1.565,0,0,0,1.012-1.231,1.363,1.363,0,0,0-.594-1.324,2.559,2.559,0,0,1-1.119-1.914c.55-1.339.942-2.071,2.487-2.562a1.443,1.443,0,0,0,1-.994,1.44,1.44,0,0,0-.312-1.365,1.638,1.638,0,0,1-.428-1.276c0-.27.022-.569.049-.893a13.244,13.244,0,0,0,.063-1.445,1.45,1.45,0,0,0-.5-1.054,1.467,1.467,0,0,0-1.119-.344c-1.447.18-2.264-.076-3.785-1.2a1.458,1.458,0,0,0-1.9.166,15.413,15.413,0,0,1-5.313,3.941,2.032,2.032,0,0,1-1.849-.025l4.864-6.221a2.527,2.527,0,0,1,1.906-1.09l7.815-.511a2.1,2.1,0,0,1,2.3,1.131l5.19,10.151a5.894,5.894,0,0,1,.866,3.576,8.427,8.427,0,0,1-1.181,2.92l-5.55,9.96a1.441,1.441,0,0,0-.181.7l0,10.649a1.451,1.451,0,0,0,2.9,0l-.011-10.273,5.365-9.629a14.037,14.037,0,0,0,1.353-3.124,6.758,6.758,0,0,0,3.921-5.684,6.039,6.039,0,0,0,2.552-1.6,4.611,4.611,0,0,0,.608-4.727l-.821-2.156a8.06,8.06,0,0,0,1.776-3.185,13.183,13.183,0,0,0-.228-6.078m-29.789-2.879,4.05,1.714a8.507,8.507,0,0,0-3.847,1.586,13.638,13.638,0,0,0-.2-3.3m-1.074,10.068-1.69,2.159c-1.708.533-2.677.208-2.956-.043-.077-.071-.117-.118-.138-.131a1.2,1.2,0,0,1,.142-.133l7.166-5.943a4.406,4.406,0,0,1,3.287-1.434l9.631-.785c1.224-.1,1.788.562,2.229,1.59l4.981,11.7a1.381,1.381,0,0,0,1.117.941,1.564,1.564,0,0,0,1.448-.62,1.373,1.373,0,0,0,.1-1.441l-4.985-11.718c-1.014-2.375-2.785-3.535-5.124-3.34l-3.916.324-12.071-5.122c-3.1-1.315-4.2-3-4.094-3.607a.9.9,0,0,1,.282-.616c.155-.1.446-.085.914.043l21.8,5.949c2.055.561,3.128,1.315,3.589,2.523l5.711,14.967c.421,1.094.234,1.432-.1,1.821a4.968,4.968,0,0,1-2.052,1.147,1.461,1.461,0,0,0-.983,1.463,4.357,4.357,0,0,1-1.257,3.1,11.338,11.338,0,0,0-.982-2.641l-5.173-10.146a5.108,5.108,0,0,0-4.661-2.722c-.138,0-.277,0-.417.015l-7.814.511a5.576,5.576,0,0,0-3.992,2.189m21.474-14.01-1.252-11.785c-.25-2.368.754-3.777,1.689-4.263a1.263,1.263,0,0,1,1.032-.168.548.548,0,0,1,.281.412l4.808,23.225a11.023,11.023,0,0,1,.257,4.748,3.734,3.734,0,0,1-.228.633l-3.645-9.521a6.181,6.181,0,0,0-2.94-3.281m-28.913,14.743c-.085-5.39-.443-10.8-.794-16.108-.059-.9.22-1.327.571-1.545.449,2.134,2.407,4.094,5.473,5.457a11.484,11.484,0,0,1,.051,7.478l-4.547,3.769a2.932,2.932,0,0,0-.754.949" transform="translate(272.609 168.048)"/></g><g transform="translate(155.728 -436.48)"><path class="b" d="M-32.8-47.716l-3.214-7.82a1.44,1.44,0,0,0-1.352-.919h0a1.446,1.446,0,0,0-1.2.656,1.443,1.443,0,0,0-.123,1.354l3.216,7.818a1.421,1.421,0,0,0,.769.81,1.442,1.442,0,0,0,.576.121,1.453,1.453,0,0,0,.552-.11,1.437,1.437,0,0,0,.8-.8,1.424,1.424,0,0,0-.015-1.111" transform="translate(38.805 56.455)"/></g><g transform="translate(165.429 -437.792)"><path class="b" d="M-13.552-2.35A1.54,1.54,0,0,0-14.6-2.781h0a1.451,1.451,0,0,0-1.427,1.467l.014,8.208a1.428,1.428,0,0,0,.392,1.07,1.434,1.434,0,0,0,1.052.451,1.452,1.452,0,0,0,1.05-.451,1.413,1.413,0,0,0,.394-1.047V-1.308a1.434,1.434,0,0,0-.42-1.043" transform="translate(16.034 2.781)"/></g><g transform="translate(147.943 -430.49)"><path class="b" d="M-45.1-34.222l-5.77-5.817A1.443,1.443,0,0,0-51.9-40.49H-51.9a1.445,1.445,0,0,0-1.346.907,1.412,1.412,0,0,0,.327,1.568l5.769,5.823a1.447,1.447,0,0,0,1.031.431,1.439,1.439,0,0,0,1.014-.415,1.437,1.437,0,0,0,.43-1.022,1.435,1.435,0,0,0-.42-1.024" transform="translate(53.359 40.49)"/></g></g></svg>