<svg xmlns="http://www.w3.org/2000/svg" width="140" height="98.807" viewBox="0 0 140 98.807"><defs><style>.a{fill:#bb92c7;}.b{fill:#532f87;}</style></defs><g transform="translate(70 49.403)"><g transform="translate(-70 -49.403)"><path class="a" d="M39.126,11.46A8.764,8.764,0,0,0,32.254,14.7a6.423,6.423,0,0,0-5.942-3.237A7.5,7.5,0,0,0,20.246,14.6V11.852h-4.07a2.139,2.139,0,0,0-2.139,2.139V33.108h6.208V21.266c0-2.674,1.236-4.146,3.479-4.146,2.2,0,3.362,1.434,3.362,4.146V33.108H33.3V21.266c0-2.674,1.236-4.146,3.48-4.146,2.2,0,3.362,1.434,3.362,4.146V33.108h4.069a2.139,2.139,0,0,0,2.139-2.139V19.306C46.345,14.32,43.714,11.46,39.126,11.46Z" transform="translate(-14.038 -11.46)"/><path class="a" d="M132.513,43.73l.014,3.372h4.649a7.32,7.32,0,0,0,6.787-4.59L155.37,12.924l-5.78-.049L144.5,26.885,139.8,12.86h-6.353l8.065,21.211c-.375,1.058-1.75,4.567-2.495,6.458a1.99,1.99,0,0,1-1.811,1.243H134.48A1.958,1.958,0,0,0,132.513,43.73Z" transform="translate(-99.34 -12.468)"/><g transform="translate(0 3.556)"><g transform="translate(0 24.228)"><path class="b" d="M43.492,110.69H16.177a2.138,2.138,0,0,0-2.139,2.139v4.759H24.762v30.107h5.867a2.139,2.139,0,0,0,2.139-2.139V117.588h8.586a2.139,2.139,0,0,0,2.139-2.139Z" transform="translate(-14.038 -110.69)"/><path class="b" d="M141.137,145.574h-5.765a2.139,2.139,0,0,0-2.139,2.139v25.1H139a2.139,2.139,0,0,0,2.139-2.139Z" transform="translate(-99.858 -135.806)"/><path class="b" d="M206.055,119.954a9.973,9.973,0,0,0-8.283,4.133v-13.4h-5.766a2.139,2.139,0,0,0-2.139,2.139V147.7h5.766a2.139,2.139,0,0,0,2.139-2.139v-1.171a10.365,10.365,0,0,0,8.283,3.813,11.861,11.861,0,0,0,8.631-3.632,14.673,14.673,0,0,0,3.78-10.44v-.1C218.466,124.788,212.223,119.954,206.055,119.954Zm4.506,14.073v.1c0,4.245-2.721,7.326-6.47,7.326-3.66,0-6.42-3.149-6.42-7.326v-.1c0-4.176,2.76-7.326,6.42-7.326C207.78,126.7,210.562,129.85,210.562,134.027Z" transform="translate(-140.636 -110.69)"/></g><path class="b" d="M422.666,31.1c0,4.161,2.774,6.842,6.056,6.842s6.01-2.728,6.01-6.842V31c0-4.115-2.727-6.842-6.01-6.842s-6.056,2.728-6.056,6.842Z" transform="translate(-308.25 -24.161)"/><path class="b" d="M335.1,95.36c0,3.951,2.634,6.5,5.751,6.5s5.707-2.59,5.707-6.5v-.088c0-3.907-2.59-6.5-5.707-6.5s-5.751,2.59-5.751,6.5Z" transform="translate(-245.203 -70.683)"/></g><path class="b" d="M342.471,88.775c-8.179,0-15.187,5.6-18.122,13.545a17.4,17.4,0,0,1,7.2,5.592c.889-7.283,5.547-11.958,10.96-11.958,6.025,0,11.031,5.788,11.031,14.518v.2c0,8.731-5.006,14.518-11.031,14.518-4.649,0-8.739-3.392-10.365-9a14.645,14.645,0,1,0-14.508,16.332,14.833,14.833,0,0,0,11.712-5.632,18.43,18.43,0,0,0,13.119,5.632c10.821,0,19.593-9.793,19.593-21.873S353.292,88.775,342.471,88.775Zm-19.049,29.569c0,4.114-2.728,6.842-6.01,6.842s-6.056-2.682-6.056-6.842v-.093c0-4.114,2.774-6.842,6.056-6.842s6.01,2.728,6.01,6.842Z" transform="translate(-222.065 -67.127)"/><g transform="translate(49.232 71.251)"><path class="a" d="M191.9,293.508c.581,0,1.328.456,1.784,1.784a7.164,7.164,0,0,1,4.523-2.241c2.283,0,4.191,2.656,4.191,5.768a5.511,5.511,0,0,1-5.187,5.727c-1.992,0-2.739-.913-2.739-1.867a2.259,2.259,0,0,1,.291-1.121c1.079-1.784,4.191.581,4.191-2.864,0-1-.415-2.448-1.328-2.448-1.411,0-4.067,3.279-4.067,4.98,0,1.121.041,4.275.041,5.353,0,2.407.249,6.432-1.7,6.432-1.535,0-1.784-1.245-1.784-2.365,0-1.577.125-3.154.125-4.607,0-5.976-.249-8.383-.374-10.167A2.1,2.1,0,0,1,191.9,293.508Z" transform="translate(-189.868 -285.458)"/><path class="a" d="M255.458,301.216c0,2.116-3.361,3.61-5.063,3.61a3.543,3.543,0,0,1-3.2-1.536,5.316,5.316,0,0,1-3.444,1.369,3.819,3.819,0,0,1-3.942-3.984c0-3.279,2.988-7.179,6.64-7.179a3.466,3.466,0,0,1,2.282.871c.622,0,1.784.125,1.784.788,0,1.826-.788,4.814-.788,5.478,0,.581.166,1.12.872,1.12,1.452,0,2.365-1.7,3.527-1.7A1.287,1.287,0,0,1,255.458,301.216Zm-8.673-1.245a4.317,4.317,0,0,0,.581-2.573.7.7,0,0,0-.705-.705,3.664,3.664,0,0,0-3.652,3.237,1.244,1.244,0,0,0,1.245,1.411A3.977,3.977,0,0,0,246.785,299.971Z" transform="translate(-225.828 -285.778)"/><path class="a" d="M290.879,296.811c0-1.992,1.328-2.9,1.328-3.984,0-1.038-1.328-.581-2.864-1.2a9.318,9.318,0,0,1-1.992,5.312c-.5.581-.788.872-1.328.872a1.765,1.765,0,0,1-1.452-1.743c0-.913,1.618-1.369,2.117-5.27a2.606,2.606,0,0,1-1.121-2.241c0-1.286.581-2.614,1.992-2.614,1.079,0,2.158,1,2.158,2.739,0,.539.747.622,1.7.622.705,0,1.577-.166,2.116-.166a2.281,2.281,0,0,1,1.909,2.407,2.89,2.89,0,0,1-.249,1.245,13.43,13.43,0,0,0-1.245,3.112c0,.332.374.581.913.581,1.867,0,2.531-1.867,3.818-1.867a1.287,1.287,0,0,1,1.328,1.162,2.575,2.575,0,0,1-.788,1.7,6.756,6.756,0,0,1-4.814,2.033C292.165,299.508,290.879,298.429,290.879,296.811Z" transform="translate(-258.054 -280.335)"/><path class="a" d="M344.708,301.216c0,1.535-2.365,3.735-6.93,3.735a5.894,5.894,0,0,1-6.225-6.017c0-1.535.83-5.436,4.814-5.436a3.518,3.518,0,0,1,3.776,3.652,5.474,5.474,0,0,1-3.029,4.689,3.006,3.006,0,0,0,1.37.29,6.439,6.439,0,0,0,3.776-1.618,1.792,1.792,0,0,1,1.121-.456A1.287,1.287,0,0,1,344.708,301.216Zm-8.424-4.648c-.872,0-1.66,1.2-1.66,2.531a2.571,2.571,0,0,0,.332,1.328,3.714,3.714,0,0,0,2.158-2.9A.887.887,0,0,0,336.284,296.568Z" transform="translate(-291.881 -285.778)"/><path class="a" d="M386.24,299.36a1.624,1.624,0,0,1,1.079-.374,1.3,1.3,0,0,1,1.245,1.245c0,1.992-3.444,3.527-5.1,3.527-1.826,0-3.486-.913-3.486-3.361,0-1.536.332-2.946.332-3.9,0-.83-.207-1.369-.83-1.369-1.286,0-3.237,2.739-4.108,4.938.042,2.49-.415,3.361-1.826,3.361-2.033,0-1.618-3.527-1.618-9.254a2,2,0,0,1,1.784-2.075c1.826,0,1.452.705,1.577,3.527,1.162-1.909,3.029-3.611,4.772-3.611a3.006,3.006,0,0,1,3.279,3.154c0,1.909-.374,3.32-.374,4.565a.845.845,0,0,0,.83.955C384.747,300.687,385.742,299.733,386.24,299.36Z" transform="translate(-320.923 -284.71)"/><path class="a" d="M428.953,280.2a1.3,1.3,0,0,1,1.245,1.245c0,1.286-2.158,3.527-5.478,3.527-4.15,0-4.98-3.03-4.523-8.466-1.535-.5-1.992-1.369-1.951-2.075.083-1.245,1.287-1.369,2.283-1.369.5-2.7,1.7-7.138,3.859-7.138,1.2,0,1.536,1.7,1.411,3.4a21.3,21.3,0,0,1-.955,4.233c.747-.041,1.2-.041,1.494-.041.747,0,1.494.166,1.411.954-.124,1.245-1.2,2.241-4.108,2.365a5.656,5.656,0,0,1-.415.871c-.042,2.614.5,4.15,2.075,4.15S427.708,280.2,428.953,280.2Z" transform="translate(-354.299 -265.929)"/><path class="a" d="M466.467,295.316a1.72,1.72,0,0,1-.747,1.37,6.255,6.255,0,0,1-4.233,1.494c.083,2.2-1.452,3.735-3.859,3.735s-4.357-1.536-4.357-3.278a3.661,3.661,0,0,1,.083-.706c-1.037,1.452-2.075,2.283-2.7,2.283a1.524,1.524,0,0,1-1.577-1.453,1.551,1.551,0,0,1,.706-1.328c2.283-1.868,3.444-3.984,5.519-7.262a1.825,1.825,0,0,1,1.7-1.121c1.619,0,2.449.622,2.449,1.287,0,.83-.207,1.2-.207,1.867a6.548,6.548,0,0,0,1.286,3.2,4.033,4.033,0,0,0,3.361-.871,1.931,1.931,0,0,1,1.245-.5A1.3,1.3,0,0,1,466.467,295.316Zm-8.922.083a5.475,5.475,0,0,1-.83-2.739c-.664,1.038-1.411,2.49-2.033,3.569A6.113,6.113,0,0,1,457.545,295.4Zm1.2,2.988a1.186,1.186,0,0,0-.207-.705c-.539-.041-2.7-.166-2.7.747,0,.705.871,1.037,1.66,1.037A1.1,1.1,0,0,0,458.748,298.387Z" transform="translate(-376.5 -282.576)"/></g></g></g></svg>