<svg xmlns="http://www.w3.org/2000/svg" width="172.258" height="80" viewBox="0 0 172.258 80"><defs><style>.a{fill:#b198c8;}.b{fill:#522e86;}</style></defs><g transform="translate(86.129 40)"><g transform="translate(-86.129 -40)"><path class="a" d="M30.691,0a10.721,10.721,0,0,0-8.407,3.959A7.858,7.858,0,0,0,15.016,0,9.174,9.174,0,0,0,7.6,3.836V.48H2.616A2.616,2.616,0,0,0,0,3.1V26.483H7.6V12c0-3.271,1.512-5.072,4.256-5.072,2.691,0,4.113,1.754,4.113,5.072V26.483h7.594V12c0-3.271,1.512-5.072,4.257-5.072,2.691,0,4.113,1.754,4.113,5.072V26.483h4.978a2.616,2.616,0,0,0,2.616-2.616V9.6C39.522,3.5,36.3,0,30.691,0Z" transform="translate(0 0)"/><path class="a" d="M135.12,39.324l.017,4.125h5.687a8.955,8.955,0,0,0,8.3-5.615l13.955-36.2-7.071-.06-6.227,17.14L144.03,1.559h-7.772l9.866,25.949c-.459,1.294-2.141,5.587-3.052,7.9a2.434,2.434,0,0,1-2.216,1.521h-3.33A2.4,2.4,0,0,0,135.12,39.324Z" transform="translate(-93.547 -1.079)"/><g transform="translate(0 4.351)"><g transform="translate(0 29.639)"><path class="b" d="M36.032,110.472H2.616A2.616,2.616,0,0,0,0,113.088v5.822H13.119v36.831H20.3a2.617,2.617,0,0,0,2.616-2.616V118.91h10.5a2.616,2.616,0,0,0,2.616-2.616Z" transform="translate(0 -110.472)"/><path class="b" d="M145.591,149.309h-7.053a2.616,2.616,0,0,0-2.616,2.617v30.705h7.053a2.617,2.617,0,0,0,2.616-2.616Z" transform="translate(-94.101 -137.36)"/><path class="b" d="M218.775,121.805a12.2,12.2,0,0,0-10.132,5.056V110.472h-7.053a2.616,2.616,0,0,0-2.616,2.616v42.654h7.053a2.616,2.616,0,0,0,2.616-2.616v-1.432a12.68,12.68,0,0,0,10.132,4.665,14.51,14.51,0,0,0,10.559-4.443c3.025-3.143,4.624-7.559,4.624-12.772v-.123C233.958,127.719,226.32,121.805,218.775,121.805Zm5.513,17.215v.123c0,5.193-3.328,8.962-7.915,8.962-4.477,0-7.853-3.852-7.853-8.962v-.123c0-5.109,3.376-8.962,7.853-8.962C220.885,130.059,224.288,133.911,224.288,139.021Z" transform="translate(-137.754 -110.472)"/></g><path class="b" d="M458.144,22.624c0,5.09,3.394,8.37,7.409,8.37s7.353-3.337,7.353-8.37V22.51c0-5.033-3.337-8.37-7.353-8.37s-7.409,3.337-7.409,8.37Z" transform="translate(-317.184 -14.14)"/><path class="b" d="M360.658,94.13c0,4.833,3.223,7.949,7.035,7.949s6.982-3.169,6.982-7.949v-.107c0-4.78-3.168-7.949-6.982-7.949s-7.035,3.169-7.035,7.949Z" transform="translate(-249.692 -63.942)"/></g><path class="b" d="M373.212,86.074c-10.006,0-18.579,6.846-22.169,16.571a21.3,21.3,0,0,1,8.812,6.841c1.088-8.909,6.786-14.628,13.408-14.628,7.37,0,13.495,7.08,13.495,17.76v.24c0,10.68-6.125,17.76-13.495,17.76-5.687,0-10.691-4.15-12.681-11.007a17.776,17.776,0,0,0-17.747-14.7c-9.916,0-17.955,7.763-17.955,17.339s8.039,17.339,17.955,17.339a18.146,18.146,0,0,0,14.327-6.89,22.547,22.547,0,0,0,16.049,6.89c13.238,0,23.969-11.98,23.969-26.759S386.45,86.074,373.212,86.074Zm-23.3,36.173c0,5.034-3.337,8.37-7.353,8.37s-7.409-3.28-7.409-8.37v-.113c0-5.033,3.394-8.37,7.409-8.37s7.353,3.337,7.353,8.37Z" transform="translate(-224.923 -59.591)"/></g></g></svg>