<svg xmlns="http://www.w3.org/2000/svg" width="140" height="90.433" viewBox="0 0 140 90.433"><defs><style>.a{fill:#532f87;}.b{fill:#bb92c7;}</style></defs><g transform="translate(70 45.216)"><g transform="translate(-70 -45.216)"><path class="a" d="M39.129,28.906a8.765,8.765,0,0,0-6.873,3.237,6.424,6.424,0,0,0-5.942-3.237,7.5,7.5,0,0,0-6.066,3.136V29.3h-4.07a2.139,2.139,0,0,0-2.139,2.139V50.556h6.209V38.712c0-2.674,1.236-4.146,3.48-4.146,2.2,0,3.362,1.434,3.362,4.146V50.556H33.3V38.712c0-2.674,1.236-4.146,3.48-4.146,2.2,0,3.362,1.434,3.362,4.146V50.556h4.07a2.139,2.139,0,0,0,2.139-2.139V36.753C46.348,31.766,43.717,28.906,39.129,28.906Z" transform="translate(-14.038 -28.906)"/><path class="a" d="M132.477,61.179l.014,3.372h4.649a7.321,7.321,0,0,0,6.787-4.591L155.336,30.37l-5.781-.049-5.09,14.012-4.7-14.027h-6.354l8.065,21.213c-.375,1.058-1.75,4.567-2.495,6.459a1.989,1.989,0,0,1-1.812,1.243h-2.722A1.958,1.958,0,0,0,132.477,61.179Z" transform="translate(-99.314 -29.914)"/><g transform="translate(0 27.787)"><path class="b" d="M43.495,128.145H16.177a2.139,2.139,0,0,0-2.139,2.139v4.759H24.763v30.11H30.63a2.139,2.139,0,0,0,2.139-2.139V135.044h8.586a2.139,2.139,0,0,0,2.139-2.139Z" transform="translate(-14.038 -128.145)"/><path class="b" d="M141.1,163.033h-5.766a2.139,2.139,0,0,0-2.139,2.139v25.1h5.766a2.139,2.139,0,0,0,2.139-2.139Z" transform="translate(-99.832 -153.264)"/><path class="b" d="M206.026,137.41a9.974,9.974,0,0,0-8.284,4.134v-13.4h-5.766a2.139,2.139,0,0,0-2.139,2.139v34.871H195.6a2.139,2.139,0,0,0,2.139-2.139v-1.171a10.366,10.366,0,0,0,8.284,3.814,11.863,11.863,0,0,0,8.632-3.632,14.677,14.677,0,0,0,3.78-10.441v-.1C218.438,142.245,212.194,137.41,206.026,137.41Zm4.507,14.074v.1c0,4.245-2.721,7.326-6.471,7.326-3.66,0-6.42-3.149-6.42-7.326v-.1c0-4.177,2.76-7.326,6.42-7.326C207.751,144.158,210.533,147.307,210.533,151.484Z" transform="translate(-140.613 -128.145)"/></g><path class="b" d="M422.657,48.544c0,4.161,2.775,6.843,6.057,6.843s6.011-2.728,6.011-6.843v-.092c0-4.115-2.728-6.843-6.011-6.843s-6.057,2.728-6.057,6.843Z" transform="translate(-308.244 -38.052)"/><path class="b" d="M335.083,112.815c0,3.951,2.635,6.5,5.751,6.5s5.708-2.591,5.708-6.5v-.088c0-3.908-2.591-6.5-5.708-6.5s-5.751,2.59-5.751,6.5Z" transform="translate(-245.19 -84.579)"/><path class="b" d="M342.455,106.228c-8.18,0-15.188,5.6-18.123,13.547a17.409,17.409,0,0,1,7.2,5.592c.89-7.283,5.548-11.959,10.961-11.959,6.025,0,11.032,5.788,11.032,14.519v.2c0,8.731-5.007,14.519-11.032,14.519-4.649,0-8.74-3.393-10.366-9a14.646,14.646,0,1,0-14.509,16.334,14.835,14.835,0,0,0,11.713-5.632,18.432,18.432,0,0,0,13.12,5.632c10.822,0,19.6-9.794,19.6-21.875S353.277,106.228,342.455,106.228ZM323.4,135.8c0,4.115-2.728,6.843-6.011,6.843s-6.057-2.682-6.057-6.843v-.093c0-4.115,2.775-6.843,6.057-6.843s6.011,2.728,6.011,6.843Z" transform="translate(-222.05 -84.578)"/><g transform="translate(61.93 68.312)"><path class="a" d="M330.15,296.4a.69.69,0,0,0,.664-.706.772.772,0,0,0-.166-.456c-.581-.955-2.2-2.947-3.113-2.947a1.1,1.1,0,0,0-1.162,1.121C326.373,294.618,329.2,296.4,330.15,296.4Z" transform="translate(-300.849 -286.857)"/><path class="a" d="M305.313,290.1a1.793,1.793,0,0,0-1.121.457,6.44,6.44,0,0,1-3.777,1.618,3.007,3.007,0,0,1-1.369-.29,5.475,5.475,0,0,0,3.03-4.69,3.519,3.519,0,0,0-3.777-3.652c-3.984,0-4.814,3.9-4.814,5.437a6.483,6.483,0,0,0,.154,1.406c-.731.444-1.322,1.25-2.436,1.25-.747,0-.955-.581-.955-1.287,0-1.037.456-2.78.456-4.482,0-1.66-.664-3.279-3.32-3.279-1.66,0-3.527,1.2-5.022,3.694a13.776,13.776,0,0,1-.083-1.826c1.453-2.988,2.449-5.645,2.449-7.388,0-2.449-.622-4.192-1.909-4.192-1.2,0-3.071,1.079-3.486,4.731a57.832,57.832,0,0,0-.249,6.35c0,2.825.032,4.925.139,6.477l-.139.081c-.747.5-1.909,1.7-3.611,1.7a3.438,3.438,0,0,1-3.4-3.527c0-1.2.83-2.324,1.785-2.324.747,0,.955,1.079,1.784,1.079a1.573,1.573,0,0,0,1.536-1.411,3,3,0,0,0-3.237-2.781c-2.739,0-5.188,2.905-5.188,6.018a6.786,6.786,0,0,0,.094,1.1,2.668,2.668,0,0,0-.259.183,6.44,6.44,0,0,1-3.777,1.618,3.006,3.006,0,0,1-1.369-.29,5.475,5.475,0,0,0,3.03-4.69,3.519,3.519,0,0,0-3.777-3.652c-3.984,0-4.814,3.9-4.814,5.437a6.5,6.5,0,0,0,.147,1.373c-.846.508-1.571,1.616-3.01,1.616-.54,0-.913-.249-.913-.581a13.443,13.443,0,0,1,1.245-3.113,2.887,2.887,0,0,0,.249-1.245,2.281,2.281,0,0,0-1.909-2.407c-.54,0-1.411.166-2.117.166-.955,0-1.7-.083-1.7-.623,0-1.743-1.079-2.739-2.158-2.739-1.411,0-1.992,1.328-1.992,2.615a2.607,2.607,0,0,0,1.121,2.241,8.411,8.411,0,0,1-1.916,4.7,4.917,4.917,0,0,1-2.981,1.233,3.438,3.438,0,0,1-3.4-3.527c0-1.2.83-2.324,1.785-2.324.747,0,.955,1.079,1.784,1.079a1.573,1.573,0,0,0,1.536-1.411,3,3,0,0,0-3.237-2.781c-2.739,0-5.188,2.905-5.188,6.018,0,3.652,2.656,5.686,6.018,5.686a8.9,8.9,0,0,0,5.134-1.675c.421-.065.7-.35,1.132-.857a9.319,9.319,0,0,0,1.992-5.312c1.536.622,2.864.166,2.864,1.2,0,1.079-1.328,1.992-1.328,3.984,0,1.619,1.287,2.7,3.528,2.7a6.742,6.742,0,0,0,4.781-2,6.132,6.132,0,0,0,4.765,2,8.6,8.6,0,0,0,5.988-1.926,6.138,6.138,0,0,0,4.679,1.884,8.951,8.951,0,0,0,4.958-1.548,1.409,1.409,0,0,0,1.433,1.05c1.287,0,1.619-1.2,1.619-2.49,0-.456-.041-.913-.083-1.411.415-1.992,2.2-4.358,3.86-4.358.706,0,.913.581.913,1.328,0,1.038-.374,2.449-.374,3.86,0,1.826.913,3.486,3.611,3.486a6.1,6.1,0,0,0,4.234-1.884A6.131,6.131,0,0,0,299.711,295c4.565,0,6.931-2.2,6.931-3.735A1.287,1.287,0,0,0,305.313,290.1Zm-44.033.374a2.571,2.571,0,0,1-.332-1.328c0-1.328.789-2.532,1.66-2.532a.887.887,0,0,1,.83.955A3.714,3.714,0,0,1,261.28,290.474Zm35.608,0a2.574,2.574,0,0,1-.332-1.328c0-1.328.788-2.532,1.66-2.532a.887.887,0,0,1,.83.955A3.713,3.713,0,0,1,296.888,290.474Z" transform="translate(-235.217 -272.877)"/></g></g></g></svg>