<svg xmlns="http://www.w3.org/2000/svg" width="107.662" height="50" viewBox="0 0 107.662 50"><defs><style>.a{fill:#f2f2f2;}.b{fill:#fff;}</style></defs><g transform="translate(53.831 25)"><g transform="translate(-53.831 -25)"><path class="a" d="M19.182,0a6.7,6.7,0,0,0-5.255,2.475A4.911,4.911,0,0,0,9.385,0,5.734,5.734,0,0,0,4.747,2.4V.3H1.635A1.635,1.635,0,0,0,0,1.935V16.552H4.747V7.5c0-2.044.945-3.17,2.66-3.17,1.682,0,2.57,1.1,2.57,3.17v9.055h4.746V7.5c0-2.044.945-3.17,2.66-3.17,1.682,0,2.571,1.1,2.571,3.17v9.055h3.111A1.635,1.635,0,0,0,24.7,14.917V6C24.7,2.186,22.69,0,19.182,0Z" transform="translate(0 0)"/><path class="a" d="M135.12,25.162l.011,2.578h3.554a5.6,5.6,0,0,0,5.189-3.51L152.6,1.608l-4.419-.038-3.892,10.712-3.6-10.723h-4.858L142,17.777c-.287.809-1.338,3.492-1.907,4.938a1.521,1.521,0,0,1-1.385.951h-2.081A1.5,1.5,0,0,0,135.12,25.162Z" transform="translate(-109.137 -1.259)"/><g transform="translate(0 2.719)"><g transform="translate(0 18.524)"><path class="b" d="M22.52,110.472H1.635A1.635,1.635,0,0,0,0,112.107v3.638H8.2v23.019h4.486a1.635,1.635,0,0,0,1.635-1.635V115.746h6.564a1.635,1.635,0,0,0,1.635-1.635Z" transform="translate(0 -110.472)"/><path class="b" d="M141.965,149.309h-4.408a1.635,1.635,0,0,0-1.635,1.635v19.191h4.408a1.635,1.635,0,0,0,1.635-1.635Z" transform="translate(-109.784 -141.841)"/><path class="b" d="M211.35,117.555a7.626,7.626,0,0,0-6.333,3.16V110.472h-4.408a1.635,1.635,0,0,0-1.635,1.635v26.659h4.408a1.635,1.635,0,0,0,1.635-1.635v-.9a7.925,7.925,0,0,0,6.333,2.915,9.069,9.069,0,0,0,6.6-2.777,11.22,11.22,0,0,0,2.89-7.982v-.077C220.839,121.251,216.065,117.555,211.35,117.555Zm3.445,10.76v.077c0,3.245-2.08,5.6-4.947,5.6-2.8,0-4.908-2.408-4.908-5.6v-.077c0-3.193,2.11-5.6,4.908-5.6C212.668,122.714,214.795,125.122,214.795,128.315Z" transform="translate(-160.711 -110.472)"/></g><path class="b" d="M458.144,19.442c0,3.181,2.121,5.231,4.631,5.231s4.6-2.085,4.6-5.231v-.071c0-3.146-2.085-5.231-4.6-5.231s-4.631,2.086-4.631,5.231Z" transform="translate(-370.044 -14.14)"/><path class="b" d="M360.658,91.109c0,3.021,2.014,4.968,4.4,4.968s4.364-1.98,4.364-4.968v-.067c0-2.987-1.98-4.968-4.364-4.968s-4.4,1.98-4.4,4.968Z" transform="translate(-291.304 -72.241)"/></g><path class="b" d="M355.088,86.074c-6.254,0-11.612,4.279-13.855,10.357a13.31,13.31,0,0,1,5.508,4.275c.68-5.568,4.241-9.143,8.38-9.143,4.606,0,8.434,4.425,8.434,11.1v.15c0,6.675-3.828,11.1-8.434,11.1-3.555,0-6.682-2.594-7.925-6.879A11.2,11.2,0,1,0,336.1,119.522a11.341,11.341,0,0,0,8.954-4.306,14.092,14.092,0,0,0,10.031,4.306c8.273,0,14.981-7.488,14.981-16.724S363.361,86.074,355.088,86.074Zm-14.565,22.608c0,3.146-2.085,5.231-4.6,5.231s-4.631-2.05-4.631-5.231v-.071c0-3.146,2.121-5.231,4.631-5.231s4.6,2.086,4.6,5.231Z" transform="translate(-262.407 -69.522)"/></g></g></svg>