<svg xmlns="http://www.w3.org/2000/svg" width="50" height="54.566" viewBox="0 0 50 54.566"><defs><style>.a{fill:#532f87;}.b{fill:#ffcb05;}</style></defs><g transform="translate(-5.092 -0.993)"><path class="a" d="M16.909,54.442l.863,1.932a2.227,2.227,0,0,0,1.236,1.169l1.525.557-.462,1.269a2.477,2.477,0,0,0,1.431,3.2l1.241.473-.557,1.52a2.227,2.227,0,0,0,.045,1.7l.735,1.67a2.093,2.093,0,0,0,1.163,1.113l4.726,1.809A1.87,1.87,0,0,0,31.2,69.744l1.815-4.726a2.11,2.11,0,0,0-.045-1.6l-5.99-13.471A12.67,12.67,0,0,0,27.9,48.68a1.392,1.392,0,1,0-2.36-1.475,9.6,9.6,0,0,1-1.2,1.547,1.392,1.392,0,0,0-.267,1.531l6.257,13.983-1.386,3.607-3.607-1.381-.523-1.169.885-2.31a1.709,1.709,0,0,0-.985-2.227l-1.959-.751.757-1.893a1.709,1.709,0,0,0-.985-2.227l-2.31-.891L19.1,52.488a1.375,1.375,0,0,0-1.319-.824A9.563,9.563,0,0,1,8.937,37.753,1.4,1.4,0,0,0,6.443,36.49,12.347,12.347,0,0,0,16.909,54.442Z" transform="translate(0 -15.398)"/><path class="a" d="M21.588,26.7a14.011,14.011,0,0,0,14.824.317l2.143,1.4a2.321,2.321,0,0,0,1.709.345h.056l2.037-.423.356,1.7a2.639,2.639,0,0,0,3.123,2.043l1.7-.356.417,2.021a2.355,2.355,0,0,0,1.008,1.486h0L50.7,36.35a2.193,2.193,0,0,0,1.2.362,2.227,2.227,0,0,0,.451-.045l5.706-1.158a1.943,1.943,0,0,0,1.5-2.3L58.371,27.5a2.193,2.193,0,0,0-.952-1.392L43.136,16.75A13.994,13.994,0,1,0,21.588,26.7ZM19.873,8.851A11.205,11.205,0,0,1,40.252,17.14a1.392,1.392,0,0,0,.6,1.431L55.7,28.312l.969,4.637-4.637.969-1.38-.9-.6-2.867a1.753,1.753,0,0,0-2.1-1.364l-2.566.557-.557-2.566a1.753,1.753,0,0,0-2.076-1.358l-2.833.573-2.744-1.8a1.392,1.392,0,0,0-1.553,0A11.211,11.211,0,0,1,19.873,8.834Z" transform="translate(-4.507)"/><path class="b" d="M29.18,22.776a4.3,4.3,0,0,0,2.377.713,4.386,4.386,0,0,0,.891-.095,4.331,4.331,0,1,0-3.256-.618Zm1.08-4.453a1.536,1.536,0,0,1,.98-.668,1.57,1.57,0,0,1,.317-.033,1.547,1.547,0,0,1,1.291,2.4h0a1.547,1.547,0,0,1-2.588-1.67Z" transform="translate(-9.817 -6.131)"/></g></svg>