<svg xmlns="http://www.w3.org/2000/svg" width="35.614" height="35" viewBox="0 0 35.614 35">
  <g id="Facebook_État_de_survol_" data-name="Facebook (État de survol)" transform="translate(0 0)">
    <path id="Tracé_4898" data-name="Tracé 4898" d="M1318.32,487.977a17.5,17.5,0,1,0,17.807,17.5A17.656,17.656,0,0,0,1318.32,487.977Zm5.641,10.8a.423.423,0,0,1-.425.418h-1.823c-1.258,0-1.487.481-1.487,1.43V502.6h3.183a.43.43,0,0,1,.3.123.417.417,0,0,1,.124.295v3.373a.422.422,0,0,1-.425.418h-3.182v8.507a.421.421,0,0,1-.425.418h-3.551a.422.422,0,0,1-.425-.418v-8.507H1313.1a.423.423,0,0,1-.425-.418v-3.373a.423.423,0,0,1,.425-.418h2.721v-2.326a4.71,4.71,0,0,1,5-5.048l2.707,0a.423.423,0,0,1,.425.418Z" transform="translate(-1300.513 -487.977)" fill="#ffcb05"/>
  </g>
</svg>
