<svg id="Instagram" xmlns="http://www.w3.org/2000/svg" width="35.614" height="35" viewBox="0 0 35.614 35">
  <path id="Tracé_4899" data-name="Tracé 4899" d="M1323.611,529.2a3.225,3.225,0,0,0-.774-1.191,3.182,3.182,0,0,0-1.189-.772,5.682,5.682,0,0,0-1.923-.357c-1.089-.048-1.417-.06-4.187-.06s-3.092.011-4.186.06a5.7,5.7,0,0,0-1.923.357,3.223,3.223,0,0,0-1.191.772,3.143,3.143,0,0,0-.776,1.191,5.64,5.64,0,0,0-.357,1.923c-.049,1.089-.06,1.422-.06,4.187s.011,3.092.06,4.185a5.665,5.665,0,0,0,.357,1.923,3.405,3.405,0,0,0,1.963,1.963,5.638,5.638,0,0,0,1.923.357c1.089.049,1.422.06,4.185.06s3.094-.011,4.187-.06a5.662,5.662,0,0,0,1.923-.357,3.436,3.436,0,0,0,1.967-1.967,5.709,5.709,0,0,0,.357-1.923c.048-1.094.06-1.417.06-4.181s-.012-3.093-.06-4.187A5.734,5.734,0,0,0,1323.611,529.2Zm-8.081,11.424a5.323,5.323,0,1,1,5.323-5.323A5.324,5.324,0,0,1,1315.53,540.622Zm5.534-9.614a1.243,1.243,0,1,1,1.244-1.243A1.242,1.242,0,0,1,1321.064,531.008Z" transform="translate(-1297.72 -517.867)" fill="#fff"/>
  <circle id="Ellipse_162" data-name="Ellipse 162" cx="3.453" cy="3.453" r="3.453" transform="translate(14.357 13.978)" fill="#fff"/>
  <path id="Tracé_4900" data-name="Tracé 4900" d="M1318.32,520.334a17.5,17.5,0,1,0,17.807,17.5A17.656,17.656,0,0,0,1318.32,520.334Zm10.3,21.628a7.375,7.375,0,0,1-.481,2.471,5.258,5.258,0,0,1-3.032,2.98,7.686,7.686,0,0,1-2.514.473c-1.106.048-1.458.06-4.271.06s-3.166-.013-4.271-.06a7.7,7.7,0,0,1-2.514-.473,5.119,5.119,0,0,1-1.834-1.174,5,5,0,0,1-1.2-1.806,7.326,7.326,0,0,1-.483-2.471c-.048-1.086-.06-1.432-.06-4.2s.011-3.112.064-4.2a7.335,7.335,0,0,1,.483-2.471,4.987,4.987,0,0,1,1.193-1.8,5.067,5.067,0,0,1,1.839-1.177,7.665,7.665,0,0,1,2.514-.473c1.1-.049,1.458-.06,4.271-.06s3.165.011,4.274.063a7.686,7.686,0,0,1,2.514.474,5.1,5.1,0,0,1,1.834,1.173,4.969,4.969,0,0,1,1.2,1.807,7.353,7.353,0,0,1,.481,2.471c.048,1.086.053,1.432.053,4.2S1328.667,540.877,1328.618,541.962Z" transform="translate(-1300.513 -520.334)" fill="#fff"/>
</svg>
