<svg id="Linkedin" xmlns="http://www.w3.org/2000/svg" width="35.614" height="35" viewBox="0 0 35.614 35">
  <path id="Tracé_4902" data-name="Tracé 4902" d="M1318.32,455.62a17.5,17.5,0,1,0,17.807,17.5A17.656,17.656,0,0,0,1318.32,455.62Zm-4.971,26.161h-3.732V470.216h3.732Zm-1.867-13.142a2.091,2.091,0,1,1,2.161-2.1A2.139,2.139,0,0,1,1311.482,468.639Zm15.835,13.141h-3.727V476.15c0-1.341-.029-3.062-1.94-3.062-1.94,0-2.237,1.459-2.237,2.966v5.727h-3.728V470.216h3.579v1.577h.053a3.947,3.947,0,0,1,3.53-1.867c3.774,0,4.469,2.393,4.469,5.5Z" transform="translate(-1300.513 -455.62)" fill="#fff"/>
</svg>
