<svg id="Twitter" xmlns="http://www.w3.org/2000/svg" width="35.614" height="35" viewBox="0 0 35.614 35">
  <path id="Tracé_4901" data-name="Tracé 4901" d="M17.807,0A17.656,17.656,0,0,0,0,17.5,17.656,17.656,0,0,0,17.807,35,17.656,17.656,0,0,0,35.614,17.5,17.656,17.656,0,0,0,17.807,0Zm9.624,13.09c.01.185.017.372.017.564A12.451,12.451,0,0,1,14.8,26.085a12.683,12.683,0,0,1-6.819-1.96,8.562,8.562,0,0,0,1.064.059,9.027,9.027,0,0,0,5.512-1.863A4.476,4.476,0,0,1,10.4,19.279a3.965,3.965,0,0,0,.841.074,4.518,4.518,0,0,0,1.165-.143,4.409,4.409,0,0,1-3.56-4.293v-.048a4.434,4.434,0,0,0,2.008.537A4.316,4.316,0,0,1,9.487,9.569a12.654,12.654,0,0,0,9.162,4.569,4.454,4.454,0,0,1-.1-1,4.406,4.406,0,0,1,4.442-4.37,4.492,4.492,0,0,1,3.246,1.382A9,9,0,0,0,29.054,9.1,4.366,4.366,0,0,1,27.1,11.512a9.4,9.4,0,0,0,2.561-.69A8.8,8.8,0,0,1,27.431,13.09Z" transform="translate(0 0)" fill="#fff"/>
</svg>
